<svg xmlns="http://www.w3.org/2000/svg" xmlns:xlink="http://www.w3.org/1999/xlink" width="1062.009" height="1064" viewBox="0 0 1062.009 1064">
  <defs>
    <clipPath id="clip-path">
      <path id="Path_3" data-name="Path 3" d="M531,8.9c293.123,0,531,238.38,531,532s-237.882,532-531,532C237.882,1072.4,0,834.52,0,540.4,0,246.782,237.882,8.9,531,8.9Z" transform="translate(0 -8.9)" fill="none"/>
    </clipPath>
  </defs>
  <g id="B_logo1080x1080" data-name="B logo1080x1080" transform="translate(0 -8.9)">
    <g id="Group_6" data-name="Group 6" transform="translate(0 8.9)">
      <g id="Group_5" data-name="Group 5">
        <path id="Path_1" data-name="Path 1" d="M531,8.9c293.123,0,531,238.38,531,532s-237.882,532-531,532C237.882,1072.4,0,834.52,0,540.4,0,246.782,237.882,8.9,531,8.9Z" transform="translate(0 -8.9)" fill="#f58220"/>
        <g id="Group_4" data-name="Group 4">
          <g id="Group_3" data-name="Group 3">
            <g id="Group_2" data-name="Group 2">
              <g id="Group_1" data-name="Group 1" clip-path="url(#clip-path)">
                <path id="Path_2" data-name="Path 2" d="M40.3,680.8c-.5,144.819,89.081,243.854,241.863,312.034V0L40.3,2.986V680.8Zm326.963-88.584V370.26c417.04-69.673,567.832,601.175,1.493,621.579V776.849c185.13,11.944,197.074-207.027-1.493-184.632Z" transform="translate(160.256 -44.292)" fill="#fff"/>
              </g>
            </g>
          </g>
        </g>
      </g>
    </g>
  </g>
</svg>
