<svg xmlns="http://www.w3.org/2000/svg" xmlns:xlink="http://www.w3.org/1999/xlink" width="1053.5" height="213.8" viewBox="0 0 1053.5 213.8">
  <defs>
    <clipPath id="clip-path">
      <path id="Path_3" data-name="Path 3" d="M106.7,8.9c58.9,0,106.7,47.9,106.7,106.9S165.6,222.7,106.7,222.7a106.9,106.9,0,0,1,0-213.8Z" fill="none"/>
    </clipPath>
  </defs>
  <g id="Bacancy_Logo_Black" data-name="Bacancy Logo Black" transform="translate(0 -8.9)">
    <g id="Group_6" data-name="Group 6">
      <g id="Group_5" data-name="Group 5">
        <path id="Path_1" data-name="Path 1" d="M106.7,8.9c58.9,0,106.7,47.9,106.7,106.9S165.6,222.7,106.7,222.7a106.9,106.9,0,0,1,0-213.8Z" fill="#f58220"/>
        <g id="Group_4" data-name="Group 4">
          <g id="Group_3" data-name="Group 3">
            <g id="Group_2" data-name="Group 2">
              <g id="Group_1" data-name="Group 1" clip-path="url(#clip-path)">
                <path id="Path_2" data-name="Path 2" d="M40.3,136.8c-.1,29.1,17.9,49,48.6,62.7V0L40.3.6V136.8ZM106,119V74.4c83.8-14,114.1,120.8.3,124.9V156.1c37.2,2.4,39.6-41.6-.3-37.1Z" fill="#fff"/>
              </g>
            </g>
          </g>
        </g>
        <path id="Path_4" data-name="Path 4" d="M277.8,133h29.6c10.6,0,15.9-5.1,15.9-15.2V104.7c0-10.2-5.6-15.2-16.7-15.2H277.8c-1.6,0-2.3.7-2.3,2.1V131c0,1.3.8,2,2.3,2Zm0-60.5h27.5c10.7,0,16.1-5.2,16.1-15.5V47.3c0-10.2-5.2-15.2-15.7-15.2h-28c-1.6,0-2.3.7-2.3,2.1V70.4a2.085,2.085,0,0,0,2.4,2.1ZM255,147V18q0-3.6,3.6-3.6h50.2c10.4,0,18.6,2.8,24.4,8.5,5.8,5.6,8.7,13.6,8.7,23.9V57.2q0,18.45-17.4,23.7a21.236,21.236,0,0,1,13.7,7.2q5.4,6.15,5.4,16.5v13.6c0,10.3-2.9,18.3-8.7,23.9s-13.8,8.5-24.1,8.5H258.7c-2.5,0-3.7-1.2-3.7-3.6Zm119.2,3.6H359q-3,0-2.1-3.6L393.7,18q1.05-3.6,5.1-3.6H420q4.2,0,5.1,3.6l36.8,129c.6,2.4-.2,3.6-2.3,3.6h-15c-1.3,0-2.2-.2-2.6-.7a5.667,5.667,0,0,1-1.2-2.9l-8-27.5H386.2l-8,27.5c-.7,2.4-2,3.6-4,3.6ZM409,34.8l-18.6,67.8h38.3L409.9,34.8ZM533.1,150.6H508.5c-10.4,0-18.5-2.9-24.2-8.7s-8.6-13.8-8.6-24.1V47.3c0-10.4,2.9-18.5,8.6-24.2s13.8-8.6,24.2-8.6h24.6c10.3,0,18.4,2.9,24.1,8.6,5.8,5.7,8.7,13.8,8.7,24.2V57.5c0,2.5-1.3,3.8-3.8,3.8H548.8c-2.4,0-3.6-1.3-3.6-3.8V48.2c0-10.4-5.1-15.7-15.2-15.7H511.6c-10.2,0-15.2,5.2-15.2,15.7V117c0,10.4,5.1,15.7,15.2,15.7H530c10.2,0,15.2-5.2,15.2-15.7v-9.3c0-2.5,1.2-3.8,3.6-3.8h13.3c2.5,0,3.8,1.3,3.8,3.8v10.2c0,10.3-2.9,18.4-8.7,24.1-5.7,5.7-13.8,8.6-24.1,8.6Zm61.5,0H579.4q-3,0-2.1-3.6L614.1,18q1.05-3.6,5.1-3.6h21.2q4.2,0,5.1,3.6l36.8,129c.6,2.4-.2,3.6-2.3,3.6H665c-1.3,0-2.2-.2-2.6-.7a5.667,5.667,0,0,1-1.2-2.9l-8-27.5H606.6l-8,27.5c-.8,2.4-2.1,3.6-4,3.6ZM629.3,34.8l-18.6,67.8H649L630.2,34.8Zm85.6,115.8H701.8q-3.6,0-3.6-3.6V18q0-3.6,3.6-3.6h11.9c2.3,0,3.8.8,4.7,2.3l51.2,92.1h.8V18.1q0-3.6,3.6-3.6h13.1q3.6,0,3.6,3.6v129q0,3.6-3.6,3.6H775.7c-2.3,0-4.1-1.1-5.5-3.4L719.4,56.2h-.8V147c-.1,2.4-1.3,3.6-3.7,3.6Zm156.9,0H847.2c-10.4,0-18.5-2.9-24.2-8.7s-8.6-13.8-8.6-24.1V47.3c0-10.4,2.9-18.5,8.6-24.2s13.8-8.6,24.2-8.6h24.6c10.3,0,18.4,2.9,24.1,8.6,5.8,5.7,8.7,13.8,8.7,24.2V57.5c0,2.5-1.3,3.8-3.8,3.8H887.5c-2.4,0-3.6-1.3-3.6-3.8V48.2c0-10.4-5.1-15.7-15.2-15.7H850.3c-10.2,0-15.2,5.2-15.2,15.7V117c0,10.4,5.1,15.7,15.2,15.7h18.4c10.2,0,15.2-5.2,15.2-15.7v-9.3c0-2.5,1.2-3.8,3.6-3.8h13.3c2.5,0,3.8,1.3,3.8,3.8v10.2c0,10.3-2.9,18.4-8.7,24.1-5.7,5.7-13.7,8.6-24.1,8.6Zm99.2,0H957.4q-3.6,0-3.6-3.6V100.2l-39.6-82a2.391,2.391,0,0,1,0-2.8,2.845,2.845,0,0,1,2.3-1.1h16.9q2.7,0,4.2,3.6l26,58.2h1.3l25.6-58.2c.8-2.4,2.3-3.6,4.2-3.6h16.9a2.775,2.775,0,0,1,2.4,1.1,2.58,2.58,0,0,1-.1,2.8l-39.6,82V147c.3,2.4-.9,3.6-3.3,3.6Z" fill="#231f20"/>
        <path id="Path_5" data-name="Path 5" d="M268.5,217h-3.4c-.7,0-1-.3-1-1V174.5a.632.632,0,0,0-.7-.7H253.2c-.7,0-1.1-.3-1.1-1v-2.7c0-.7.4-1,1.1-1h27.3c.7,0,1.1.3,1.1,1v2.7c0,.7-.4,1-1.1,1H270.3c-.5,0-.7.2-.7.7V216c0,.7-.4,1-1.1,1Zm82.6,0H327.7c-.7,0-1-.3-1-1V170.1c0-.7.3-1,1-1h23.4c.7,0,1,.3,1,1v2.7c0,.7-.3,1-1,1H332.8c-.5,0-.7.2-.7.7v15.1a.632.632,0,0,0,.7.7h16c.7,0,1,.3,1,1V194c0,.7-.3,1-1,1h-16c-.5,0-.7.2-.7.7v15.9a.632.632,0,0,0,.7.7h18.3c.7,0,1,.3,1,1V216c0,.7-.3,1-1,1Zm68.5,0h-9a11.3,11.3,0,0,1-8.1-2.9c-2-1.9-2.9-4.7-2.9-8.1V180.1c0-3.5,1-6.2,2.9-8.1a11.3,11.3,0,0,1,8.1-2.9h9a11.3,11.3,0,0,1,8.1,2.9c2,1.9,2.9,4.7,2.9,8.1v3.7c0,.7-.3,1-1,1h-3.4c-.7,0-1-.3-1-1v-3.4c0-4.3-2.1-6.5-6.3-6.5h-7.7c-4.1,0-6.2,2.2-6.2,6.5v25.5c0,4.3,2.1,6.5,6.2,6.5h7.7c4.2,0,6.3-2.2,6.3-6.5v-3.4c0-.7.3-1,1-1h3.4c.7,0,1,.3,1,1v3.7c0,3.5-1,6.2-2.9,8.1q-2.85,2.7-8.1,2.7Zm63.5,0h-3.4c-.7,0-1-.3-1-1V170.1c0-.7.3-1,1-1h3.4c.7,0,1,.3,1,1v19.6a.632.632,0,0,0,.7.7h18.5c.5,0,.7-.2.7-.7V170.1c0-.7.3-1,1-1h3.4c.7,0,1,.3,1,1V216c0,.7-.3,1-1,1H505c-.7,0-1-.3-1-1V195.8a.632.632,0,0,0-.7-.7H484.8c-.5,0-.7.2-.7.7V216c.1.7-.3,1-1,1Zm80.6,0h-3.3c-.7,0-1-.3-1-1V170.1c0-.7.3-1,1-1h3.1a1.209,1.209,0,0,1,1.2.6l20.6,36.2h.3V170.1c0-.7.3-1,1-1h3.3c.7,0,1,.3,1,1V216c0,.7-.3,1-1,1h-2.8a2.072,2.072,0,0,1-1.6-1L565,180.2h-.3V216c0,.7-.3,1-1,1Zm87.9-4.8h7.6c4.2,0,6.3-2.2,6.3-6.5V180.2c0-4.3-2.1-6.5-6.3-6.5h-7.6c-4.1,0-6.2,2.2-6.2,6.5v25.5c0,4.4,2,6.5,6.2,6.5Zm8.2,4.8H651a11.3,11.3,0,0,1-8.1-2.9c-2-1.9-2.9-4.7-2.9-8.1V180.1c0-3.5,1-6.2,2.9-8.1a11.3,11.3,0,0,1,8.1-2.9h8.9A11.3,11.3,0,0,1,668,172c2,2,2.9,4.7,2.9,8.1V206a10.079,10.079,0,0,1-11.1,11Zm85.1,0h-24c-.7,0-1-.3-1-1V170.1c0-.7.3-1,1-1h3.4c.7,0,1,.3,1,1v41.4a.632.632,0,0,0,.7.7h18.8c.7,0,1,.4,1,1.1v2.8q.15.9-.9.9Zm57.5-4.8H810c4.2,0,6.3-2.2,6.3-6.5V180.2c0-4.3-2.1-6.5-6.3-6.5h-7.6c-4.1,0-6.2,2.2-6.2,6.5v25.5c0,4.4,2.1,6.5,6.2,6.5Zm8.3,4.8h-8.9a11.3,11.3,0,0,1-8.1-2.9c-2-1.9-2.9-4.7-2.9-8.1V180.1c0-3.5,1-6.2,2.9-8.1a11.3,11.3,0,0,1,8.1-2.9h8.9a11.3,11.3,0,0,1,8.1,2.9c2,2,2.9,4.7,2.9,8.1V206a10.065,10.065,0,0,1-11,11Zm78.4,0H881a11.3,11.3,0,0,1-8.1-2.9c-2-1.9-2.9-4.7-2.9-8.1V180.1c0-3.5,1-6.2,2.9-8.1a11.3,11.3,0,0,1,8.1-2.9h8.1a10.065,10.065,0,0,1,11,11v3.1c0,.7-.3,1.1-1,1.1h-3.4c-.7,0-1-.4-1-1.1v-2.8c0-4.3-2.1-6.5-6.2-6.5h-6.8c-4.1,0-6.2,2.2-6.2,6.5v25.5c0,4.3,2.1,6.5,6.2,6.5h6.8c4.1,0,6.2-2.2,6.2-6.5v-8.4c0-.5-.2-.7-.7-.7h-7.4c-.7,0-1-.3-1-1V193c0-.7.3-1,1-1h12c1,0,1.5.5,1.5,1.6V206c0,3.5-1,6.2-2.9,8.1-2,2-4.7,2.9-8.1,2.9Zm74.3,0H960c-.7,0-1-.3-1-1V199l-14.2-28.9a1.1,1.1,0,0,1,0-.8.779.779,0,0,1,.7-.3h4.2a1.435,1.435,0,0,1,1.3,1l10.7,22.6h.4L972.7,170a1.17,1.17,0,0,1,1.2-1h4.3c.8,0,1.1.4.7,1.1L964.5,199v17c0,.7-.4,1-1.1,1Z" fill="#808285"/>
      </g>
    </g>
    <g id="Group_9" data-name="Group 9">
      <g id="Group_7" data-name="Group 7">
        <path id="Path_6" data-name="Path 6" d="M1030.2,36.4v-16h6.8a8.558,8.558,0,0,1,3.7.5,2.919,2.919,0,0,1,1.8,1.5,4.3,4.3,0,0,1,.7,2.5,4.426,4.426,0,0,1-1.1,3,5.986,5.986,0,0,1-3.2,1.5,7.944,7.944,0,0,1,1.7,1.4,13.913,13.913,0,0,1,1.8,2.6l2,3.1h-3.8l-2.3-3.4c-.9-1.2-1.4-2-1.7-2.3a1.326,1.326,0,0,0-1-.6,7.115,7.115,0,0,0-1.6-.1h-.6v6.6h-3.2Zm3.2-9.2h2.3a16.17,16.17,0,0,0,3-.2,1.6,1.6,0,0,0,.9-.7,2.449,2.449,0,0,0,.4-1.2,1.871,1.871,0,0,0-.5-1.4c-.2-.4-.7-.5-1.2-.6h-4.8v4.1Z" fill="#231f20"/>
      </g>
      <g id="Group_8" data-name="Group 8">
        <path id="Path_7" data-name="Path 7" d="M1036.4,45.4a17.1,17.1,0,1,1,17.1-17.1A17.029,17.029,0,0,1,1036.4,45.4Zm0-30.4a13.3,13.3,0,1,0,13.3,13.3A13.294,13.294,0,0,0,1036.4,15Z" fill="#231f20"/>
      </g>
    </g>
  </g>
</svg>
